# xmcd
#
# Track frame offsets:
#	150
#	16428
#	40590
#	63540
#	78473
#	94508
#	117285
#	134705
#	151260
#	172133
#
# Disc length: 2627 seconds
#
# Revision: 3
# Processed by: cddbd v1.5.2PL0 Copyright (c) Steve Scherf et al.
# Submitted via: EZCDAudioConverter 8.0.2.1
#
DISCID=800a410a
DTITLE=Various Artist - Dạ Vũ Tân Hôn 2
DYEAR=1992
DGENRE=Disco
TTITLE0=Elvis Phương - Chỉ có em
TTITLE1=Lưu Hồng - Buồn vương màu áo
TTITLE2=Tuấn Vũ, Như Mai - Anh về với em
TTITLE3=Khánh Ly - Dừng bước giang hồ
TTITLE4=Lê Phúc - Ngày cưới em
TTITLE5=Tuấn Vũ, Như Mai - Em đi mùa cưới em
TTITLE6=Lê Uyên - Một đời yêu anh
TTITLE7=Như Mai - Xe hoa một chiếc
TTITLE8=Kiều Nga - Bài thơ cuối cùng
TTITLE9=Elvis Phương - Lâu đài tình ái
EXTD=
EXTT0=
EXTT1=
EXTT2=
EXTT3=
EXTT4=
EXTT5=
EXTT6=
EXTT7=
EXTT8=
EXTT9=
PLAYORDER=
